<svg xmlns="http://www.w3.org/2000/svg" viewBox="0 0 34.32 38.04"><title>visualout</title><path d="M30.41,5.1a1,1,0,0,0-1,1,1,1,0,1,0,2,0,1,1,0,0,0-1-1Zm-.7,1a.7.7,0,1,1,1.4,0,.7.7,0,1,1-1.4,0Zm1.19.46v.06h-.29l-.24-.32h-.09v.32H30v-1h.48c.45,0,.52.59.16.67l.25.32Zm-.62-.74V6.1h.21a.12.12,0,1,0,0-.24Z"/><path d="M17.16,28.28h0Z"/><path d="M17.23,28.28a13.29,13.29,0,0,0,2.7-.28L28.41,5.65a.26.26,0,0,0-.24-.35H22.75a.25.25,0,0,0-.24.18L20.9,10.35a.25.25,0,0,0,.12.3,7.08,7.08,0,0,1,2.75,2.76.25.25,0,0,1,0,.24,7.34,7.34,0,0,1-5,3.6.25.25,0,0,0-.19.17l-1.41,4.27h0l-.23.65a2.93,2.93,0,0,1-2.74,2.09h0a2.84,2.84,0,0,1-.72-.1.26.26,0,0,0-.32.33L14.39,28a13.29,13.29,0,0,0,2.7.28Z"/><path d="M12.6,23.27a.26.26,0,0,0,.07.11,2.32,2.32,0,0,0,1.5.58h0a2.47,2.47,0,0,0,2.29-1.78L16.89,21a.25.25,0,0,0,0-.17l-1.14-3.45a.25.25,0,0,0-.19-.17,7.31,7.31,0,0,1-5-3.6.21.21,0,0,1,0-.24,7,7,0,0,1,2.72-2.75.25.25,0,0,0,.12-.3L11.81,5.48a.25.25,0,0,0-.24-.18H6.15a.26.26,0,0,0-.24.35Z"/><circle cx="17.16" cy="13.53" r="1.64"/><path d="M27.54,8.26c-.07-.07-.18,0-.12.1a12,12,0,0,1,2.69,7.54A12.54,12.54,0,0,1,19.93,28a13.29,13.29,0,0,1-2.7.28h-.14a13.29,13.29,0,0,1-2.7-.28A12.54,12.54,0,0,1,4.21,15.9,11.93,11.93,0,0,1,6.9,8.36a.08.08,0,0,0-.12-.11A14.19,14.19,0,0,0,2.34,18.54a14.62,14.62,0,0,0,14.82,14.4A14.62,14.62,0,0,0,32,18.54,14.15,14.15,0,0,0,27.54,8.26Z"/></svg>